/* XPM */
static char *doors_leaf_closed1710219814[] = {
/* columns rows colors chars-per-pixel */
"32 32 10 1 ",
"  c #483B3A",
". c #111111",
"X c #222222",
"o c #483B3A",
"O c #62232F",
"+ c #775C55",
"@ c #8F4029",
"# c #AA8D7A",
"$ c #72D6CE",
"& c #FDF7ED",
/* pixels */
"         XXXXXXXXXXXXXX         ",
"      XXX++X+++X+++X+++XXX      ",
"    XX+++ooXoooXoooXoooX++XX    ",
"   X++XooXXXXXXXXXXXXXX+oo++X   ",
"  XoooXXX..............XXXoooX  ",
" XXooX...@.@@@.O@@.@@@.@..XXXXX ",
"XX+XX..@@@.@@@.O@@.@@O.@@@.X++XX",
"Xoo+X@.@O@.@@@.O@O.@@O.@@@.XXooX",
"XooX.@.@O@.@@@.@@@.@@O.@O@..XooX",
"oooX@@.@O@.@O@.@@O.@OO.@O@.@XXXX",
"XXX.@@.@OO.@@@.@@O.@OO.OO@.@OX++",
"++X@@@.@OO.@O@.@@O.@OO.O@O.O@Xoo",
"oXXX@@.@@O.@O@.@@O.@@O.O@O.O@Xoo",
"oX$XXXXXOO.@O@.O@O.@O@.XXX.@OXoo",
"XX$&$&$X@O.@OO.O@@.@@XXX$XXX@XXX",
"+X$XXXXX@O.@OO.O@O.@@X$$$$$XOX++",
"oXXX....@O.@OO.O@@.@OX$XXX$XOXoo",
"ooX.@O.@@O.@OO.O@@.OOX&XXX&XOXoo",
"XXX@@O.@@O.@@O.@@@.OO.X&&&X.OXXX",
"++XO@O.@O@.@@O.@@@.OO@.XXX.OOX++",
"ooXO@O.@@@.@@@.@O@.OO@.....OOXoo",
"oXXX@O.@O@.@@@.@O@.OO@.@@@.OOXoo",
"XX$XXXXXO@.@@@.@O@.O@@.@@@.OOXXX",
"+X$&$&$XO@.@@@.@O@.O@@.@@@.O@X++",
"oX$XXXXXO@.O@@.@O@.O@@.@@@.O@Xoo",
"oXXX....O@.O@O.@O@.O@@.@@@.O@Xoo",
"ooX@@@.@O@.O@O.@@@.@@@.O@O.OOXXX",
"XXX..........................X++",
"++XXXXXXXXXXXXXXXXXXXXXXXXXXXXoo",
"oo+X#####.####.####.####.####Xoo",
"ooo+XooooXooooXooooXoooXooooXooo",
"XXXXXXXXXXXXXXXXXXXXXXXXXXXXXXXX"
};
