/* XPM */
static char *doors_leaf_open1710219815[] = {
/* columns rows colors chars-per-pixel */
"32 32 13 1 ",
"  c #483B3A",
". c #111111",
"X c #222222",
"o c #2A2A3A",
"O c gray20",
"+ c #483B3A",
"@ c #62232F",
"# c #775C55",
"$ c #8F4029",
"% c #AA8D7A",
"& c #72D6CE",
"* c #D3BFA9",
"= c #FDF7ED",
/* pixels */
"  X%%X***XXXXXXXXXXXXXX**X%%%X  ",
" X%%**XXX##X###X###X###XXX**%%X ",
"X%%*XX###++X+++X+++X+++X##XX*%XX",
"%X*X##X++XXXXXXXXXXXXXX#++##XX%%",
"%*X+++XXX              XXX+++X*%",
"*XX++X.                   XXXXX*",
"*X#XX@.                    X##XX",
"X++#X$.                    XX++X",
"X++X.$.                     X++X",
"+++X$$.                     XXXX",
"XXX.$@.                      X##",
"##X$$@.                      X++",
"+XXX$@.                      X++",
"+X&XX@.                      X++",
"XX&=X@.                      XXX",
"#X&XX$.                      X##",
"+XXX.$.                      X++",
"++X.$$.                      X++",
"XXX$$$.                      XXX",
"##X@$@.                      X##",
"++X@$@.                      X++",
"+XXX$@.                      X++",
"XX&XX@.                      XXX",
"#X&=X@.                      X##",
"+X&XX@.                      X++",
"+XXX$@.                      X++",
"++X$$$.                      XXX",
"XXX$@$.                      X##",
"##XXXXXXXXXXXXXXXXXXXXXXXXXXXX++",
"++#X%%%%%.%%%%.%%%%O%%%%o%%%%X++",
"+++#X++++X++++X++++X+++X++++X+++",
"XXXXXXXXXXXXXXXXXXXXXXXXXXXXXXXX"
};
