/* XPM */
static const char *aWRsZV9SXzM_[] = {
/* columns rows colors chars-per-pixel */
"32 32 63 1 ",
"  c gray13",
". c #222222",
"X c #262325",
"o c #2D2523",
"O c #2D242C",
"+ c #392526",
"@ c #30252E",
"# c #31252F",
"$ c #39272D",
"% c #3C2F31",
"& c #442A26",
"* c #482A27",
"= c #482B29",
"- c #502D27",
"; c #44283F",
": c #502C30",
"> c #5B2F31",
", c #523833",
"< c #682B2D",
"1 c #72352C",
"2 c #462941",
"3 c #502B41",
"4 c #502A49",
"5 c #673043",
"6 c #723345",
"7 c #7E354E",
"8 c #4F4A49",
"9 c #574D49",
"0 c #595755",
"q c #6F4A4F",
"w c #893B2E",
"e c #802E31",
"r c #8D3B32",
"t c #963633",
"y c #953B31",
"u c #953D38",
"i c #AC4332",
"p c #B04436",
"a c #B74634",
"s c #BC4336",
"d c #B7453C",
"f c #BB463F",
"g c #C34636",
"h c #CE4B37",
"j c #D24B37",
"k c #DA4E38",
"l c #89585E",
"z c #9D5555",
"x c #B36354",
"c c #C65042",
"v c #DC5943",
"b c #D96B59",
"n c #E16E5A",
"m c #E37865",
"M c #A99A97",
"N c #C0A298",
"B c #D7A59C",
"V c #EEAD9E",
"C c #C6C2BA",
"Z c #D6C2BD",
"A c #F4CDC0",
"S c #FDF7ED",
"D c #483B3A",
/* pixels */
"......DD........DDDDDD..DD......",
"......DD........DDDDDD..DD......",
"..DDDDDDDDDDDDDDDDDDDDDDDDDDDDDD",
"..DDDDDDDDDDDDDDDDDDDDDDDDDDDDDD",
"DDDDDDDDDDDDDDDDDDDDDDDDDDDDDDDD",
"DDDDDDDDDDDDDDDDDDDDDDDDDDDDDDDD",
"DDDDDDDDDDDDDDDDDDDDDDDDDDDDDDDD",
"DDDDDDDDDDDDDDDDDDDDDDDDDDDDDDDD",
"..DDDDDDDDDDDDDDDDDDDDDDDDDDDDDD",
"..DDDDDDDDDDDDDDDDDDDDDDDDDDDDDD",
"DDDDDDDDDDDDDD....DDDDDD....DDDD",
"DDDDDDDDDDDDDD@OX.DDDDDD@OX.DDDD",
"..DDDDDDDDDD.@2;O.DDDD.@2;O.DDDD",
"..DDDDDDDDDD.@44@.DDDD.@44@.DDDD",
"..DDDDDD.....@44@......@44@.DDDD",
"..DDDDDD.o&&o@44@o&--&o@44@.DDDD",
"..DDDDDD.&ww&@44@&wiiw&@44@.DDDD",
"..DDDDDD.-ia1>66>1akka1:32@.DDDD",
"DDDDDDDD.-ihapddpahkkhar:@DDDDDD",
"DDDDDDDD.-ikkvnmmnvkkvnx,.DDDDDD",
"DDDDDDDD.-ikknVAAVnkknVN9.DDDDDD",
"DDDDDDDD.-ikkmASSAmkkmAC0.DDDDDD",
"..DDDDDD.-ikkmASSAmkkmAC0.DDDDDD",
"..DDDDDD.-ikkbBZZBbkkbBM8.DDDDDD",
"..DDDDDD.-ikkczllzckkczq%.DDDDDD",
"..DDDDDD.-ikkgteetgkkgt<+.DDDDDD",
"..DDDDDD.-ikkjgssgjkkjgy*.DDDDDD",
"..DDDDDD.=uffdpiiiipdffu=.DDDDDD",
"..DDDDDD.$5776>---->6775$.DDDDDD",
"..DDDDDD.O;44;O....O;44;O.DDDDDD",
"DDDDDDDD.XO@@OX.DD.XO@@OX.DDDDDD",
"DDDDDDDD........DD........DDDDDD"
};
