/* XPM */
static char *result[] = {
/* columns rows colors chars-per-pixel */
"32 32 57 1 ",
"  c gray13",
". c #222222",
"X c #262325",
"o c #2D2523",
"O c #2D242C",
"+ c #392526",
"@ c #30252E",
"# c #31252F",
"$ c #3C2F31",
"% c #442A26",
"& c #482A27",
"* c #502D27",
"= c #44283F",
"- c #502C30",
"; c #5B2F31",
": c #523833",
"> c #682B2D",
", c #72352C",
"< c #462941",
"1 c #502B41",
"2 c #502A49",
"3 c #723345",
"4 c #4F4A49",
"5 c #574D49",
"6 c #595755",
"7 c #6F4A4F",
"8 c #893B2E",
"9 c #802E31",
"0 c #8D3B32",
"q c #963633",
"w c #953B31",
"e c #AC4332",
"r c #B04436",
"t c #B74634",
"y c #BC4336",
"u c #B7453C",
"i c #C34636",
"p c #CE4B37",
"a c #D24B37",
"s c #DA4E38",
"d c #89585E",
"f c #9D5555",
"g c #B36354",
"h c #C65042",
"j c #DC5943",
"k c #D96B59",
"l c #E16E5A",
"z c #E37865",
"x c #A99A97",
"c c #C0A298",
"v c #D7A59C",
"b c #EEAD9E",
"n c #C6C2BA",
"m c #D6C2BD",
"M c #F4CDC0",
"N c #FDF7ED",
"B c #483B3A",
/* pixels */
"......BB........BBBBBB..BB......",
"......BB........BBBBBB..BB......",
"..BBBBBBBBBBBBBBBBBBBBBBBBBBBBBB",
"..BBBBBBBBBBBBBBBBBBBBBBBBBBBBBB",
"BBBBBBBBBBBBBBBBBBBBBBBBBBBBBBBB",
"BBBBBBBBBBBBBBBBBBBBBBBBBBBBBBBB",
"BBBBBBBBBBBBBBBBBBBBBBBBBBBBBBBB",
"BBBBBBBBBBBBBBBBBBBBBBBBBBBBBBBB",
"..BBBBBBBBBBBBBBBBBBBBBBBBBBBBBB",
"..BBBBBBBBBBBBBBBBBBBBBBBBBBBBBB",
"BBBBBBBBBBBBBBBBBBBBBBBBBBBBBBBB",
"BBBBBBBBBBBBBBBBBBBBBBBBBBBBBBBB",
"..BB.  .BBBBBB.  .BBBBBBBBBBBBBB",
"..BB XO@BBBBBB XO@BBBBBBBBBBBBBB",
"..BB O=<@.BBBB O=<@.BBBBBBBBBBBB",
"..BB #22#.BBBB.#22#.BBBBBBBBBBBB",
"..BB #22#..  ..#22#..  .BBBBBBBB",
"..BB #22#o%**%o#22#o%%o BBBBBBBB",
"BBBB #22#%8ee8%#22#%88% BBBBBBBB",
"BBBB.@<1-,tsst,;33;,te* BBBBBBBB",
"BBBBBB@-0tpssptruurtpe* BBBBBBBB",
"BBBBBB :gljssjlzzljsse* BBBBBBBB",
"..BBBB 5cblsslbMMblsse* BBBBBBBB",
"..BBBB 6nMzsszMNNMzsse* BBBBBBBB",
"..BBBB 6nMzsszMNNMzsse* BBBBBBBB",
"..BBBB 4xvksskvmmvksse* BBBBBBBB",
"..BBBB $7fhsshfddfhsse* BBBBBBBB",
"..BBBB +>qissiq99qisse* BBBBBBBB",
"..BBBB &wiassaiyyiasse* BBBBBBBB",
"..BBBB %8eeeeeeeeeeee8% BBBBBBBB",
"BBBBBB o%************%o BBBBBBBB",
"BBBBBB ................ BBBBBBBB"
};
