/* XPM */
static char *result[] = {
/* columns rows colors chars-per-pixel */
"32 32 66 1 ",
"  c gray13",
". c #222222",
"X c #262325",
"o c #2D2523",
"O c #2D242C",
"+ c #392526",
"@ c #30252E",
"# c #31252F",
"$ c #39272D",
"% c #3C2F31",
"& c #3D2739",
"* c #442A26",
"= c #482A27",
"- c #482B29",
"; c #502D27",
": c #44283F",
"> c #502C30",
", c #5B2F31",
"< c #523833",
"1 c #682B2D",
"2 c #72352C",
"3 c #462941",
"4 c #502B41",
"5 c #502A49",
"6 c #542B4C",
"7 c #5B2C53",
"8 c #673043",
"9 c #723345",
"0 c #7E354E",
"q c #4F4A49",
"w c #574D49",
"e c #595755",
"r c #6F4A4F",
"t c #893B2E",
"y c #802E31",
"u c #8D3B32",
"i c #963633",
"p c #953B31",
"a c #953D38",
"s c #AC4332",
"d c #B04436",
"f c #B74634",
"g c #BC4336",
"h c #B7453C",
"j c #BB463F",
"k c #C34636",
"l c #CE4B37",
"z c #D24B37",
"x c #DA4E38",
"c c #89585E",
"v c #9D5555",
"b c #B36354",
"n c #C65042",
"m c #DC5943",
"M c #D96B59",
"N c #E16E5A",
"B c #E37865",
"V c #A99A97",
"C c #C0A298",
"Z c #D7A59C",
"A c #EEAD9E",
"S c #C6C2BA",
"D c #D6C2BD",
"F c #F4CDC0",
"G c #FDF7ED",
"H c #483B3A",
/* pixels */
"......HH........HHHHHH..HH......",
"......HH........HHHHHH..HH......",
"..HHHHHHHHHHHHHHHHHHHHHHHHHHHHHH",
"..HHHHHHHHHHHHHHHHHHHHHHHHHHHHHH",
"HHHHHHHHHHHHHHHHHHHHHHHHHHHHHHHH",
"HHHHHHHHHHHHHHHHHHHHHHHHHHHHHHHH",
"HHHHHHHHHHHHHHHHHHHHHHHHHHHHHHHH",
"HHHHHHHHHHHHHHHHHHHHHHHHHHHHHHHH",
"..HH.  .HHHHHH.  .HHHHHHHHHHHHHH",
"..HH XO@HHHHHH XO@HHHHHHHHHHHHHH",
"HHHH O:3@.HHHH O:3@.HHHHHHHHHHHH",
"HHHH #55#.HHHH.#55#.HHHHHHHHHHHH",
"..HH #55#..  ..#55#..  .HHHHHHHH",
"..HH #55#o*;;*o#55#o**o HHHHHHHH",
"..HH #55#*tsst*#55#*tt* HHHHHHHH",
"..HH.@34>2fxxf2,99,2fs; HHHHHHHH",
"..HHHH@>uflxxlfdhhdfls; HHHHHHHH",
"..HHHH <bNmxxmNBBNmxxs; HHHHHHHH",
"HHHHHH wCANxxNAFFANxxs; HHHHHHHH",
"HHHHHH eSFBxxBFGGFBxxs; HHHHHHHH",
"HHHHHH eSFBxxBFGGFBxxs; HHHHHHHH",
"HHHHHH qVZMxxMZDDZMxxs; HHHHHHHH",
"..HHHH %rvnxxnvccvnxxs; HHHHHHHH",
"..HHHH +1ikxxkiyyikxxs; HHHHHHHH",
"..HHHH =pkzxxzkggkzxxs; HHHHHHHH",
"..HHHH -ajjhdssssdhjja- HHHHHHHH",
"..HHHH $8009,;;;;,9008$ HHHHHHHH",
"..HHHH #576:O....#576:O HHHHHHHH",
"..HHHH #56&OX.HH.#56&OX HHHHHHHH",
"..HHHH O::O...HH O::O...HHHHHHHH",
"HHHHHH XOOX.HHHH XOOX.HHHHHHHHHH",
"HHHHHH .... HHHH .... HHHHHHHHHH"
};
