/* XPM */
static char *idle_L_21710219860[] = {
/* columns rows colors chars-per-pixel */
"32 32 7 1 ",
"  c #222222",
". c #DC4A7B",
"X c #417089",
"o c #72D6CE",
"O c #F78697",
"+ c #FDF7ED",
"@ c #483B3A",
/* pixels */
"      @@                        ",
"      @@       OOOOOOO......    ",
"  @@@@@@@@@@@@ OOOOOOO...... @@@",
"  @@@@@@@@@@@ OOOOO...      @@@@",
"@@@@@@@@@@@@@ OOOOO...      @@@@",
"@@@@@@@@@@@@@ OOOOO...      @@@@",
"@@@@@@@@@@@@@ OOOO... @@@@@@@@@@",
"@@@@@@@@@@@@@@ ....  @@@@@@@@@@@",
"  @@@@@                  @@@@@@@",
"  @@@@@                  @@@@@@@",
"@@@@@@@  ++++ooooooooo   @@@@@@@",
"@@@@     XXXXXXXXXXooo   @@@@@@@",
"  @@     XXXXXXXXXXooo   @@@@@@@",
"  @@  +++oooooooooXooo   @@@@@@@",
"  @@  +XXooXXoXoooXooo   @@@@@@@",
"  @@  +XXooXXoXoooXooo   @@@@@@@",
"  @@  +XXooXXoXoooXooo   @@@@@@@",
"  @@  +XXooXXoXoooXooo   @@@@@@@",
"@@@@  +XXooXXoXoooXooo   @@@@@@@",
"@@@@  +++oooooooooXooo   @@@@@@@",
"@@@@  +++oooooooooXooo   @@@@@@@",
"@@@@     XXXXXXXXXXooo   @@@@@@@",
"  @@@@@  ++ooooooooooo   @@@@@@@",
"  @@@@@  ++ooooooooooo   @@@@@@@",
"  @@@@@  ooXXXXXXXXXXX   @@@@@@@",
"  @@@@@  ++ooooooooooo   @@@@@@@",
"  @@@@@  ++ooooooooooo   @@@@@@@",
"  @@@@@  ++ooooooooooo   @@@@@@@",
"  @@@@@  ++ooooooooooo   @@@@@@@",
"  @@@@@  XXXX      XXX   @@@@@@@",
"@@@@@@@  XXXX      XXX   @@@@@@@",
"@@@@@@@@@     @@@@@      @@@@@@@"
};
