/* XPM */
static char *idle_R_31710219863[] = {
/* columns rows colors chars-per-pixel */
"32 32 9 1 ",
"  c #222222",
". c #BB4E73",
"X c #DC4A7B",
"o c #417089",
"O c #C95C80",
"+ c #72D6CE",
"@ c #F78697",
"# c #FDF7ED",
"$ c #483B3A",
/* pixels */
"      $$        $$$$$$  $$      ",
"      $$        $$$$$$  $$      ",
"  $  .           $$$$$$$$$$$$$$$",
"  $$$ OOX@@@@@@@  $$$$$$$$$$$$$$",
"$$$$$ OOX@@@@@@@  $$$$$$$$$$$$$$",
"$$$$$$   XXX@@@@@@  $$$$$$$$$$$$",
"$$$$$$$$$  XXX@@@@  $$$$$$$$$$$$",
"$$$$$$$$$  XXX@@@@  $$$$$$$$$$$$",
"  $$$$$$$$$ XXXX  $$$$$$$$$$$$$$",
"  $$$$$$$$$ XXXX  $$$$$$$$$$$$$$",
"$$$$$$$$                $$$$$$$$",
"$$$$$$$$ +++++++++++### $$$$$$$$",
"  $$$$$$ +++++++++++### $$$$$$$$",
"  $$$$$$ +++ooooooooooo    $$$$$",
"  $$$$$$ +++oo+++++++++### $$$$$",
"  $$$$$$ +++oo+++++++++### $$$$$",
"  $$$$$$ +++oo++oo++o++o## $$$$$",
"  $$$$$$ +++oo++oo++o++o## $$$$$",
"$$$$$$$$ +++oo++oo++o++o## $$$$$",
"$$$$$$$$ +++oo++oo++o++o## $$$$$",
"$$$$$$$$ +++oo++oo++o++o## $$$$$",
"$$$$$$$$ +++oo+++++++++### $$$$$",
"  $$$$$$ +++ooooooooooo    $$$$$",
"  $$$$$$ +++ooooooooooo    $$$$$",
"  $$$$$$ ++++++++++++## $$$$$$$$",
"  $$$$$$ ++++++++++++## $$$$$$$$",
"  $$$$$$ oooooooooooo++ $$$$$$$$",
"  $$$$$$ ++++++++++++## $$$$$$$$",
"  $$$$$$ ++++++++++++## $$$$$$$$",
"  $$$$  ooo++++++++++ooo  $$$$$$",
"$$$$$$                    $$$$$$",
"$$$$$$                    $$$$$$"
};
