/* XPM */
static char *idle_R_21710219862[] = {
/* columns rows colors chars-per-pixel */
"32 32 7 1 ",
"  c #222222",
". c #DC4A7B",
"X c #417089",
"o c #72D6CE",
"O c #F78697",
"+ c #FDF7ED",
"@ c #483B3A",
/* pixels */
"                 @@@@@  @@      ",
"    ......OOOOOO  @@@@  @@      ",
"  @ ......OOOOOO  @@@@@@@@@@@@@@",
"  @@      ...OOOOO @@@@@@@@@@@@@",
"@@@@      ...OOOOO @@@@@@@@@@@@@",
"@@@@      ...OOOOO @@@@@@@@@@@@@",
"@@@@@@@@@@ ...OOOO @@@@@@@@@@@@@",
"@@@@@@@@@@@  ...  @@@@@@@@@@@@@@",
"  @@@@@                  @@@@@@@",
"  @@@@@                  @@@@@@@",
"@@@@@@@   ooooooooo++++  @@@@@@@",
"@@@@@@@   oooXXXXXXXXXX     @@@@",
"  @@@@@   oooXXXXXXXXXX     @@@@",
"  @@@@@   oooXooooooooo+++  @@@@",
"  @@@@@   oooXooXXoXXooXX+  @@@@",
"  @@@@@   oooXooXXoXXooXX+  @@@@",
"  @@@@@   oooXooXXoXXooXX+  @@@@",
"  @@@@@   oooXooXXoXXooXX+  @@@@",
"@@@@@@@   oooXooXXoXXooXX+  @@@@",
"@@@@@@@   oooXooooooooo+++  @@@@",
"@@@@@@@   oooXooooooooo+++  @@@@",
"@@@@@@@   oooXXXXXXXXXX     @@@@",
"  @@@@@   ooooooooooo++  @@@@@@@",
"  @@@@@   ooooooooooo++  @@@@@@@",
"  @@@@@   XXXXXXXXXXXoo  @@@@@@@",
"  @@@@@   ooooooooooo++  @@@@@@@",
"  @@@@@   ooooooooooo++  @@@@@@@",
"  @@@@@   ooooooooooo++  @@@@@@@",
"  @@@@@   ooooooooooo++  @@@@@@@",
"  @@@@@   XXX      XXXX  @@@@@@@",
"@@@@@@@   XXX      XXXX  @@@@@@@",
"@@@@@@@      @@@@@     @@@@@@@@@"
};
