/* XPM */
static char *idle_L_01710219863[] = {
/* columns rows colors chars-per-pixel */
"32 32 10 1 ",
"  c #222222",
". c #B9607E",
"X c #DC4A7B",
"o c #417089",
"O c #C95C80",
"+ c #72D6CE",
"@ c #F78697",
"# c #D3CACD",
"$ c #FDF7ED",
"% c #483B3A",
/* pixels */
"      %%                %%      ",
"      %%                %%      ",
"  %%%%%%%%%%%  @@@@@@@OO  %%%%%%",
"  %%%%%%%%%% @@@@@@XXX  .. %%%%%",
"%%%%%%%%%%%% @@@@@@XXX  .. %%%%%",
"%%%%%%%%%%%% @@@@@XXX ##  O  %%%",
"%%%%%%%%%%%% @@@@@XXX ##  O  %%%",
"%%%%%%%        XXXX     ## %%%%%",
"  %%%%% $$$$++++++++++  %%%%%%%%",
"  %%%%% $$$$++++++++++  %%%%%%%%",
"%%%%    ooooooooooo+++  %%%%%%%%",
"%%%%    ooooooooooo+++  %%%%%%%%",
"  %% $$$++++++++++o+++  %%%%%%%%",
"  %% $$o++oo+ooo++o+++  %%%%%%%%",
"  %% $$o++oo+ooo++o+++  %%%%%%%%",
"  %% $$o++oo+ooo++o+++  %%%%%%%%",
"  %% $$o++oo+ooo++o+++  %%%%%%%%",
"  %% $$o++oo+ooo++o+++  %%%%%%%%",
"%%%% $$o++oo+ooo++o+++  %%%%%%%%",
"%%%% $$$++++++++++o+++  %%%%%%%%",
"%%%%    ooooooooooo+++  %%%%%%%%",
"%%%%    ooooooooooo+++  %%%%%%%%",
"  %%%%% $$++++++++++++  %%%%%%%%",
"  %%%%% $$++++++++++++  %%%%%%%%",
"  %%%%% ++oooooooooooo  %%%%%%%%",
"  %%%%% $$++++++++++++  %%%%%%%%",
"  %%%%% $$++++++++++++  %%%%%%%%",
"  %%%%% $$++++++++++++  %%%%%%%%",
"  %%%%% $$++++++++++++  %%%%%%%%",
"  %%%%% oooo       ooo  %%%%%%%%",
"%%%%%%%     %%%%%%%     %%%%%%%%",
"%%%%%%%     %%%%%%%     %%%%%%%%"
};
