/* XPM */
static char *idle_L_11710219863[] = {
/* columns rows colors chars-per-pixel */
"32 32 9 1 ",
"  c #222222",
". c #BB4E73",
"X c #DC4A7B",
"o c #417089",
"O c #C95C80",
"+ c #72D6CE",
"@ c #F78697",
"# c #FDF7ED",
"$ c #483B3A",
/* pixels */
"      $$                        ",
"      $$       @@@@@@@XXXO      ",
"  $$$$$$$$$$$$ @@@@@@@XXXO  $$$$",
"  $$$$$$$$$$$ @@@@@XXX    .. $$$",
"$$$$$$$$$$$$$ @@@@@XXX    .. $$$",
"$$$$$$$$$$$$$ @@@@@XXX    .. $$$",
"$$$$$$$$$$$$$ @@@@XXX $$$$  $$$$",
"$$$$$$$        XXXX      $$$$$$$",
"  $$$$$  ####+++++++++   $$$$$$$",
"  $$$$$  ####+++++++++   $$$$$$$",
"$$$$     oooooooooo+++   $$$$$$$",
"$$$$  ###+++++++++o+++   $$$$$$$",
"  $$  ###+++++++++o+++   $$$$$$$",
"  $$  #oo++oo+oo++o+++   $$$$$$$",
"  $$  #oo++oo+oo++o+++   $$$$$$$",
"  $$  #oo++oo+oo++o+++   $$$$$$$",
"  $$  #oo++oo+oo++o+++   $$$$$$$",
"  $$  #oo++oo+oo++o+++   $$$$$$$",
"$$$$  ###+++++++++o+++   $$$$$$$",
"$$$$     oooooooooo+++   $$$$$$$",
"$$$$     oooooooooo+++   $$$$$$$",
"$$$$$$$  ##+++++++++++   $$$$$$$",
"  $$$$$  ++ooooooooooo   $$$$$$$",
"  $$$$$  ++ooooooooooo   $$$$$$$",
"  $$$$$  ##+++++++++++   $$$$$$$",
"  $$$$$  ##+++++=+++++   $$$$$$$",
"  $$$$$  ##+++++=+++++   $$$$$$$",
"  $$$$$  ##+++++=+++++   $$$$$$$",
"  $$$$$  oooo      ooo   $$$$$$$",
"  $$$$$$$  oo $$$$$  o   $$$$$$$",
"$$$$$$$$$  oo $$$$$  o   $$$$$$$",
"$$$$$$$$$$$   $$$$$$$    $$$$$$$"
};
