/* XPM */
static char *floor1710219967[] = {
/* columns rows colors chars-per-pixel */
"32 32 2 1 ",
"  c #222222",
". c #483B3A",
/* pixels */
"      ..        ......  ..      ",
"      ..        ......  ..      ",
"  ..............................",
"  ..............................",
"................................",
"................................",
"................................",
"................................",
"  ..............................",
"  ..............................",
"................................",
"................................",
"  ..............................",
"  ..............................",
"  ..............................",
"  ..............................",
"  ..............................",
"  ..............................",
"................................",
"................................",
"................................",
"................................",
"  ..............................",
"  ..............................",
"  ..............................",
"  ..............................",
"  ..............................",
"  ..............................",
"  ..............................",
"  ..............................",
"................................",
"................................"
};
