/* XPM */
static char *wall1710219966[] = {
/* columns rows colors chars-per-pixel */
"32 32 3 1 ",
"  c #222222",
". c #5A2B14",
"X c #775C55",
/* pixels */
"  XX  XXXXXXXXXXXX  XXXXXX  XXXX",
"  XX  XXXXXXXXXXXX  XXXXXX  XXXX",
"  ..  ............  ......  ....",
"  ..  ............  ......  ....",
"....  ....  ......  ....    ....",
"....  ....  ......  ....    ....",
"                                ",
"                                ",
"XX  XXXX  XXXXXXXXXXXX  XXXXXXXX",
"XX  XXXX  XXXXXXXXXXXX  XXXXXXXX",
"  ......  ............  ........",
"  ......  ............  ........",
"  ......  ............  ..  ....",
"........  ............  ..  ....",
"                                ",
"                                ",
"  XXXXXXXXXXXX  XXXXXXXXXXXX    ",
"  XXXXXXXXXXXX  XXXXXXXXXXXX    ",
"  ............  ............  ..",
"  ............  ............  ..",
"  ....  ......  ............  ..",
"......  ......  ............  ..",
"                                ",
"                                ",
"XXXX  XXXXXXXXXXXXXX  XXXXXXXXXX",
"XXXX  XXXXXXXXXXXXXX  XXXXXXXXXX",
"....  ..............  ..........",
"....  ..............  ..........",
"  ..  ..........  ..  ..  ......",
"  ..  ..........  ..  ..  ......",
"                                ",
"                                "
};
