/* XPM */
static char *coin_anim_f01710219726[] = {
/* columns rows colors chars-per-pixel */
"32 32 5 1 ",
"  c #222222",
". c #FACB3E",
"X c #FDF7ED",
"o c #483B3A",
"Z c #EE8E2E",
/* pixels */
"       oo        ooooo  oo      ",
"      ooo        ooooo  oo      ",
"  ooooooooooZZZZZXXXXooooooooooo",
"  ooooooooooZZZZZXXXXooooooooooo",
"ooooooooooooZZZZZXXXXooooooooooo",
"ooooooooZZZZ.........XXXXXoooooo",
"ooooooooZZZZ.........XXXXXoooooo",
"ooooooooZZZZ.........XXXXXoooooo",
"  ooooooZZZZ.........XXXXXoooooo",
"  oZZZZZ..................XXXXoo",
"oooZZZZZ..................XXXXoo",
"oooZZZZZ..................XXXXoo",
"  oZZZZZ..................XXXXoo",
"  oZZZZZ..................XXXXoo",
"  oZZZZZ..................XXXXoo",
"  oZZZZZ..................XXXXoo",
"  oZZZZZ..................XXXXoo",
"  oZZZZZ..................XXXXoo",
"oooZZZZZ..................XXXXoo",
"oooZZZZZ..................XXXXoo",
"oooZZZZZ..................XXXXoo",
"oooZZZZZ..................XXXXoo",
"  oZZZZZ..................XXXXoo",
"  ooooooZZZZ.........XXXXXoooooo",
"  ooooooZZZZ.........XXXXXoooooo",
"  ooooooZZZZ.........XXXXXoooooo",
"  ooooooZZZZ.........XXXXXoooooo",
"  ooooooooooZZZZZXXXXooooooooooo",
"  ooooooooooZZZZZXXXXooooooooooo",
"  ooooooooooZZZZZXXXXooooooooooo",
"oooooooooooooooooooooooooooooooo",
"oooooooooooooooooooooooooooooooo"
};
