/* XPM */
static char *coin_anim_f21710219727[] = {
/* columns rows colors chars-per-pixel */
"32 32 4 1 ",
"  c #222222",
"Z c #EE8E2E",
"$ c #FACB3E",
". c #483B3A",
/* pixels */
"      ..        ......  ..      ",
"      ..        ......  ..      ",
"  ..........$$$$$ZZZZ...........",
"  ..........$$$$$ZZZZ...........",
"............$$$$$ZZZZ...........",
"............$$$$$ZZZZ...........",
"............$$$$$ZZZZ...........",
"............$$$$$ZZZZ...........",
"  ..........$$$$$ZZZZ...........",
"  ..........$$$$$ZZZZ...........",
"............$$$$$ZZZZ...........",
"............$$$$$ZZZZ...........",
"  ..........$$$$$ZZZZ...........",
"  ..........$$$$$ZZZZ...........",
"  ..........$$$$$ZZZZ...........",
"  ..........$$$$$ZZZZ...........",
"  ..........$$$$$ZZZZ...........",
"  ..........$$$$$ZZZZ...........",
"............$$$$$ZZZZ...........",
"............$$$$$ZZZZ...........",
"............$$$$$ZZZZ...........",
"............$$$$$ZZZZ...........",
"  ..........$$$$$ZZZZ...........",
"  ..........$$$$$ZZZZ...........",
"  ..........$$$$$ZZZZ...........",
"  ..........$$$$$ZZZZ...........",
"  ..........$$$$$ZZZZ...........",
"  ..........$$$$$ZZZZ...........",
"  ..........$$$$$ZZZZ...........",
"  ..........$$$$$ZZZZ...........",
"................................",
"................................"
};
