/* XPM */
static char *coin_anim_f11710219726[] = {
/* columns rows colors chars-per-pixel */
"32 32 3 1 ",
"  c #222222",
"Z c #FDF7ED",
". c #483B3A",
/* pixels */
"      ..        ......  ..      ",
"      ..        ......  ..      ",
"  ..........ZZZZZZZZZ...........",
"  ..........ZZZZZZZZZ...........",
"............ZZZZZZZZZ...........",
"........ZZZZZZZZZZZZZZZZZZ......",
"........ZZZZZZZZZZZZZZZZZZ......",
"........ZZZZZZZZZZZZZZZZZZ......",
"  ......ZZZZZZZZZZZZZZZZZZ......",
"  ......ZZZZZZZZZZZZZZZZZZ......",
"........ZZZZZZZZZZZZZZZZZZ......",
"........ZZZZZZZZZZZZZZZZZZ......",
"  ......ZZZZZZZZZZZZZZZZZZ......",
"  ......ZZZZZZZZZZZZZZZZZZ......",
"  ......ZZZZZZZZZZZZZZZZZZ......",
"  ......ZZZZZZZZZZZZZZZZZZ......",
"  ......ZZZZZZZZZZZZZZZZZZ......",
"  ......ZZZZZZZZZZZZZZZZZZ......",
"........ZZZZZZZZZZZZZZZZZZ......",
"........ZZZZZZZZZZZZZZZZZZ......",
"........ZZZZZZZZZZZZZZZZZZ......",
"........ZZZZZZZZZZZZZZZZZZ......",
"  ......ZZZZZZZZZZZZZZZZZZ......",
"  ......ZZZZZZZZZZZZZZZZZZ......",
"  ......ZZZZZZZZZZZZZZZZZZ......",
"  ......ZZZZZZZZZZZZZZZZZZ......",
"  ......ZZZZZZZZZZZZZZZZZZ......",
"  ..........ZZZZZZZZZ...........",
"  ..........ZZZZZZZZZ...........",
"  ..........ZZZZZZZZZ...........",
"................................",
"................................"
};
